HIERARCHY
ROOT Hips
{
	OFFSET 0.000000 0.000000 0.000000 
	CHANNELS 6 Xposition Yposition Zposition Zrotation Xrotation Yrotation
	JOINT Spine
	{
		OFFSET -0.000000 8.061080 0.000000 
		CHANNELS 3 Zrotation Xrotation Yrotation
		JOINT Spine1
		{
			OFFSET -0.000000 20.532677 0.000000 
			CHANNELS 3 Zrotation Xrotation Yrotation
			JOINT Neck
			{
				OFFSET -0.000000 22.498795 0.000000 
				CHANNELS 3 Zrotation Xrotation Yrotation
				JOINT Head
				{
					OFFSET -0.000000 15.237408 1.966117 
					CHANNELS 3 Zrotation Xrotation Yrotation
					End Site
					{
						OFFSET -0.000000 19.661171 0.000000 
					}
				}
			}
			JOINT LeftShoulder
			{
				OFFSET 3.894675 16.042269 -0.398189 
				CHANNELS 3 Zrotation Xrotation Yrotation
				JOINT LeftArm
				{
					OFFSET 19.709621 0.000000 0.000000 
					CHANNELS 3 Zrotation Xrotation Yrotation
					JOINT LeftForeArm
					{
						OFFSET 25.566900 0.000000 0.000000 
						CHANNELS 3 Zrotation Xrotation Yrotation
						JOINT LeftHand
						{
							OFFSET 25.401896 0.000000 0.000000 
							CHANNELS 3 Zrotation Xrotation Yrotation
							End Site
							{
								OFFSET 14.745877 0.000000 0.000000 
							}
						}
					}
				}
			}
			JOINT RightShoulder
			{
				OFFSET -3.930777 16.042269 -0.398189 
				CHANNELS 3 Zrotation Xrotation Yrotation
				JOINT RightArm
				{
					OFFSET -19.709621 0.000000 0.000000 
					CHANNELS 3 Zrotation Xrotation Yrotation
					JOINT RightForeArm
					{
						OFFSET -25.566900 0.000000 0.000000 
						CHANNELS 3 Zrotation Xrotation Yrotation
						JOINT RightHand
						{
							OFFSET -25.401896 0.000000 0.000000 
							CHANNELS 3 Zrotation Xrotation Yrotation
							End Site
							{
								OFFSET -14.745877 0.000000 0.000000 
							}
						}
					}
				}
			}
		}
	}
	JOINT LeftUpLeg
	{
		OFFSET 9.830585 0.000000 0.000000 
		CHANNELS 3 Zrotation Xrotation Yrotation
		JOINT LeftLeg
		{
			OFFSET -0.000000 -46.474842 0.000000 
			CHANNELS 3 Zrotation Xrotation Yrotation
			JOINT LeftFoot
			{
				OFFSET -0.000000 -30.290520 0.000000 
				CHANNELS 3 Zrotation Xrotation Yrotation
				JOINT LeftToeBase
				{
					OFFSET -0.000000 -6.389880 14.745877 
					CHANNELS 3 Zrotation Xrotation Yrotation
					End Site
					{
						OFFSET -0.000000 0.000000 3.932234 
					}
				}
			}
		}
	}
	JOINT RightUpLeg
	{
		OFFSET -9.830585 0.000000 0.000000 
		CHANNELS 3 Zrotation Xrotation Yrotation
		JOINT RightLeg
		{
			OFFSET -0.000000 -46.474842 0.000000 
			CHANNELS 3 Zrotation Xrotation Yrotation
			JOINT RightFoot
			{
				OFFSET -0.000000 -30.290520 0.000000 
				CHANNELS 3 Zrotation Xrotation Yrotation
				JOINT RightToeBase
				{
					OFFSET -0.000000 -6.389880 14.745877 
					CHANNELS 3 Zrotation Xrotation Yrotation
					End Site
					{
						OFFSET -0.000000 0.000000 3.932234 
					}
				}
			}
		}
	}
}
MOTION
Frames: 11
Frame Time: 0.010000
0.000000 85.576614 0.000000 -1.978622 4.124677 4.700812 2.378540 -7.736704 -0.383399 1.472863 -1.784717 -0.160452 3.220388 9.002696 0.196813 0.813834 7.031669 0.733972 2.824369 10.782881 0.437481 -70.230293 26.870537 -24.326563 -12.727443 1.549440 -4.054474 5.505100 1.428225 6.877699 -7.998425 9.886305 -10.343227 55.349216 53.688229 38.152355 6.751569 -8.664891 6.955639 -9.368638 -9.340093 3.328670 5.110699 4.030737 6.313772 2.798849 -7.126898 3.743321 -0.602229 2.993932 -1.152430 0.000000 0.000000 0.000000 -5.952647 -2.706512 7.345875 9.912000 4.479112 -14.528382 -10.726907 -0.411237 -8.202163 0.000000 0.000000 0.000000 
-0.003216 85.578995 0.028975 -1.940054 4.056365 4.692117 2.215711 -7.718391 -0.385765 1.721891 -1.744221 -0.154370 3.092700 8.986621 0.168156 0.806012 7.116536 0.677617 2.686697 10.849289 0.521717 -70.135971 26.893236 -24.504457 -12.775253 1.554214 -3.982836 5.495132 1.439264 6.889579 -8.090808 9.880153 -10.345359 55.505573 53.502068 37.972618 6.828672 -8.577756 6.968302 -9.454814 -9.262944 3.352496 5.103199 4.171392 6.335186 2.845001 -7.094511 3.731532 -0.645303 2.817731 -1.353053 0.000000 0.000000 0.000000 -5.980994 -2.637291 7.364839 9.917171 4.473110 -14.973425 -10.711834 -0.428351 -7.899086 0.000000 0.000000 0.000000 
-0.000222 85.575287 0.014683 -1.969091 4.109720 4.711305 2.323930 -7.776516 -0.397660 1.560598 -1.743618 -0.163631 3.215460 9.015767 0.208336 0.773815 7.031232 0.752696 2.788072 10.803961 0.392147 -70.247681 26.863605 -24.321724 -12.692157 1.537140 -4.049531 5.493341 1.416611 6.870317 -7.966408 9.897346 -10.300023 55.361801 53.573380 38.062233 6.808990 -8.666424 6.967670 -9.549973 -9.349771 3.313442 5.038847 4.042399 6.320927 2.705336 -7.144928 3.714055 -0.919755 3.025144 0.489147 0.000000 0.000000 0.000000 -5.941657 -2.683500 7.261706 9.899606 4.546880 -14.951593 -11.159131 -0.527282 -7.404065 0.000000 0.000000 0.000000 
-0.000905 85.572311 0.019221 -1.956873 4.117358 4.721556 2.335861 -7.779372 -0.403028 1.526664 -1.733923 -0.166156 3.234827 8.950476 0.150852 0.745871 7.124551 0.700300 2.810107 10.791147 0.428015 -70.236641 26.885155 -24.334110 -12.710880 1.551818 -4.069601 5.467070 1.427889 6.892137 -8.008590 9.841016 -10.310209 55.492100 53.604858 37.966824 6.777980 -8.648873 6.956821 -9.493297 -9.329140 3.326101 5.087745 4.050363 6.321728 2.802033 -7.144392 3.717643 -0.618689 3.010330 -1.142986 0.000000 0.000000 0.000000 -5.983399 -2.739026 7.324859 9.941659 4.525393 -15.647358 -10.783410 -0.528853 -7.166598 0.000000 0.000000 0.000000 
0.001589 85.573372 0.026402 -1.947055 4.102215 4.714375 2.222158 -7.702361 -0.438811 1.751807 -1.871965 -0.169547 3.083028 9.049467 0.182980 0.786794 7.097104 0.696336 2.719623 10.703989 0.414491 -70.301369 27.213425 -24.206545 -12.575324 1.391179 -4.032695 5.424602 1.270642 6.828736 -8.130437 9.932102 -10.283629 55.439137 53.590950 38.020363 6.794496 -8.660991 6.953555 -9.495907 -9.340899 3.311140 5.128433 4.181436 6.327137 2.924623 -7.016121 3.733746 -0.760472 2.503547 -1.580258 0.000000 0.000000 0.000000 -5.992574 -2.719830 7.326831 9.940425 4.527291 -15.624182 -10.782340 -0.533628 -7.188532 0.000000 0.000000 0.000000 
0.000703 85.571884 0.028379 -1.951082 4.112161 4.718636 2.315623 -7.781493 -0.411176 1.572244 -1.736963 -0.167622 3.213010 8.954419 0.148837 0.760444 7.112261 0.691024 2.789863 10.797932 0.448661 -70.232658 26.916407 -24.354361 -12.719355 1.533991 -4.061601 5.476062 1.409716 6.861332 -8.029638 9.840864 -10.306385 55.510803 53.586803 37.934902 6.782256 -8.654726 6.945769 -9.478064 -9.333573 3.319000 5.039498 4.032015 6.383991 2.916255 -7.076526 3.709437 -0.666127 2.970836 -1.236043 0.000000 0.000000 0.000000 -5.988360 -2.727799 7.313030 9.939870 4.529006 -15.621581 -10.820954 -0.535053 -7.156742 0.000000 0.000000 0.000000 
0.003036 85.572784 0.036085 -1.941287 4.094917 4.713679 2.216792 -7.707817 -0.445723 1.769532 -1.864087 -0.171476 3.078125 9.057119 0.167430 0.791206 7.065996 0.678850 2.708377 10.712627 0.435848 -70.288521 27.226736 -24.233854 -12.592946 1.386389 -4.027297 5.450197 1.265935 6.799736 -8.137970 9.933747 -10.282508 55.419724 53.596142 38.029228 6.794783 -8.663117 6.937589 -9.476205 -9.342633 3.324713 5.125196 4.191118 6.321729 2.916365 -7.010803 3.721544 -0.769487 2.515254 -1.558082 0.000000 0.000000 0.000000 -5.998011 -2.704844 7.312469 9.939588 4.529540 -15.618293 -10.861348 -0.533607 -7.118762 0.000000 0.000000 0.000000 
0.000679 85.572197 0.035057 -1.947291 4.107200 4.728880 2.318922 -7.786961 -0.421116 1.569440 -1.731301 -0.171369 3.223467 8.966875 0.120647 0.762389 7.074098 0.664423 2.797456 10.818553 0.463105 -70.225861 26.916048 -24.387115 -12.726804 1.537981 -4.063404 5.481495 1.413195 6.854280 -8.022924 9.829720 -10.301712 55.524055 53.580811 37.904045 6.785296 -8.643598 6.930440 -9.478566 -9.321900 3.320596 5.081624 4.073025 6.310799 2.802796 -7.138849 3.697871 -0.600121 2.996146 -1.148143 0.000000 0.000000 0.000000 -5.991498 -2.716245 7.305696 9.940266 4.527539 -15.629424 -10.847456 -0.535411 -7.137601 0.000000 0.000000 0.000000 
0.000927 85.572472 0.044380 -1.939334 4.084459 4.718959 2.214280 -7.696335 -0.453031 1.783974 -1.882305 -0.173511 3.061519 9.056735 0.161292 0.829504 7.069035 0.661759 2.702271 10.724499 0.434661 -70.299767 27.226978 -24.218872 -12.584142 1.379533 -4.042679 5.439970 1.257366 6.806367 -8.145150 9.941058 -10.282313 55.430756 53.582458 38.006897 6.808290 -8.652383 6.929957 -9.500897 -9.333425 3.329966 5.126382 4.209833 6.314102 2.907368 -7.030030 3.704740 -0.797001 2.532340 -1.493483 0.000000 0.000000 0.000000 -5.999418 -2.691410 7.317793 9.945404 4.538189 -15.591697 -10.837024 -0.546384 -7.179285 0.000000 0.000000 0.000000 
0.003972 85.575233 0.030708 -1.957128 4.123426 4.709731 2.392401 -7.773815 -0.400647 1.480675 -1.776188 -0.166868 3.277113 9.004454 0.150281 0.766642 6.973331 0.707222 2.825892 10.842416 0.483511 -70.210144 26.911316 -24.408737 -12.747244 1.529841 -4.070745 5.514084 1.406207 6.868677 -8.007530 9.739123 -10.216548 55.702972 53.704491 37.646400 6.700938 -8.687125 6.958294 -9.417197 -9.358857 3.304843 5.082637 4.056885 6.310666 2.809197 -7.148296 3.731837 -0.591226 3.013238 -1.160848 0.000000 0.000000 0.000000 -5.975389 -2.700528 7.319284 9.916571 4.535584 -14.476830 -10.849668 -0.464678 -8.158571 0.000000 0.000000 0.000000 
0.000010 85.571777 0.050192 -1.937961 4.085998 4.727535 2.222815 -7.708547 -0.452598 1.775615 -1.875640 -0.173671 3.085833 9.061343 0.134118 0.822000 7.040391 0.640513 2.711125 10.736238 0.432515 -70.283806 27.236523 -24.250488 -12.595954 1.374560 -4.039483 5.435446 1.252170 6.807686 -8.144185 9.933864 -10.279919 55.448074 53.584984 37.973248 6.799380 -8.642509 6.923769 -9.472945 -9.322823 3.341527 5.085528 4.183403 6.363977 3.027835 -6.959561 3.739945 -0.848672 2.472215 -1.625449 0.000000 0.000000 0.000000 -5.997388 -2.689655 7.325794 9.940575 4.545014 -15.614103 -10.812698 -0.562460 -7.195855 0.000000 0.000000 0.000000 
